# xmcd
#
# Track frame offsets: 
#        150
#        12418
#        24995
#        38180
#        50051
#        64794
#        77136
#        90875
#        104629
#        117351
#        128753
#        142420
#        148411
#        161411
#        180691
#        195389
#
# Disc length: 2790 seconds
#
# Revision: 0
# Processed by: cddbd v1.5.2PL0 Copyright (c) Steve Scherf et al.
# Submitted via: ExactAudioCopy v0.95b4
#
DISCID=e30ae410
DTITLE=Various Artist - Introduction to Texas Blues, An
DYEAR=2007
DGENRE=Blues
TTITLE0=Rock Awhile - Goree Carter
TTITLE1=Home Again Blues - Frankie Lee Sims
TTITLE2=Little Willie's Boogie - Little Willie Littlefield
TTITLE3=Wintertime Blues - Lester Williams
TTITLE4=Bon Ton Roula - Clarence Garlow
TTITLE5=Worried Blues - Smokey Hogg
TTITLE6=Walking The Baby - Clarence Green
TTITLE7=Mojo Hand - Lightnin' Hopkins
TTITLE8=Got My Mojo Working - Roy Head and The Traits
TTITLE9=Down On Bending Knees - Johnny Copeland
TTITLE10=It's Alright - Clarence "Gatemouth" Brown
TTITLE11=Baby Please Don't Go - T-Bone Walker
TTITLE12=Carried To The Cleaners And Hung Out To Dry - Juke Boy Bonner
TTITLE13=Going Down - Freddie King
TTITLE14=Low Down Gal Of Mine - Johnny Winter
TTITLE15=Iceman - Albert Collins
EXTD=
EXTT0=
EXTT1=
EXTT2=
EXTT3=
EXTT4=
EXTT5=
EXTT6=
EXTT7=
EXTT8=
EXTT9=
EXTT10=
EXTT11=
EXTT12=
EXTT13=
EXTT14=
EXTT15=
PLAYORDER=
